<svg xmlns="http://www.w3.org/2000/svg" viewBox="0 0 64 64">
  <defs>
    <linearGradient id="g" x1="0" y1="0" x2="1" y2="1">
      <stop offset="0" stop-color="#5b6cff"/>
      <stop offset="1" stop-color="#22d3ee"/>
    </linearGradient>
  </defs>
  <rect width="64" height="64" rx="16" fill="url(#g)"/>
  <path d="M32 14c-9.9 0-18 6.9-18 15.4 0 4.9 2.7 9.2 6.9 12-.4 2.2-1.4 4.3-3 6 2.9-.3 5.6-1.4 7.8-3 2 0.5 4.1 0.7 6.3 0.7 9.9 0 18-6.9 18-15.4S41.9 14 32 14z" fill="#fff" opacity="0.95"/>
  <g fill="#0ea5e9">
    <circle cx="25" cy="29.4" r="2.4"/>
    <circle cx="32" cy="29.4" r="2.4"/>
    <circle cx="39" cy="29.4" r="2.4"/>
  </g>
  <path d="M49 6.5l1.6 4.4 4.4 1.6-4.4 1.6L49 18.5l-1.6-4.4-4.4-1.6 4.4-1.6L49 6.5z" fill="#fff"/>
</svg>
